<svg id="Calque_1" data-name="Calque 1" xmlns="http://www.w3.org/2000/svg" viewBox="0 0 3425.46 1091.98"><defs><style>.cls-1{fill:#702e92;}.cls-2{fill:#06d6a0;}.cls-3{fill:none;}.cls-4{fill:#dae9f6;}</style></defs><path class="cls-1" d="M2035.79,1500.56l-153.64-241.65h-2v241.65h-66.12V1135.89h71.47l152.19,241.66h2V1135.89h66.12v364.67Z" transform="translate(-518.77 -954.01)"/><path class="cls-1" d="M2153.47,1500.56V1248.7h68.07v192.54h75.85V1248.7h68.07v251.86Z" transform="translate(-518.77 -954.01)"/><path class="cls-1" d="M2758.33,1500.56h-68.07V1337.19c0-21.39-15.56-37-36.46-37s-36,15.56-36,37v163.37h-68.07V1337.19c0-21.39-15.56-37-36.47-37s-36,15.56-36,37v163.37h-68.08v-162.4c0-57.37,45.71-97.24,103.57-97.24,31.12,0,55.92,11.67,72,32.09,17-20.42,42.3-32.09,72.94-32.09,58.34,0,100.64,39.87,100.64,97.24Z" transform="translate(-518.77 -954.01)"/><path class="cls-1" d="M2921.22,1508.34c-79.74,0-135.17-56.4-135.17-133.71,0-78.28,55.91-133.71,134.19-133.71,73.91,0,123.51,55.91,123.51,133.71,0,6.81-.49,15.07-1.95,21.39H2856.55c7.3,33.07,30.15,52,65.16,52,28.2,0,46.67-8.75,63.2-29.66l39.39,41.33C2998.53,1493.27,2964,1508.34,2921.22,1508.34Zm-64.67-155.59h120.58c-4.86-31.6-26.74-52.51-58.34-52.51C2885.72,1300.24,2863.36,1320.17,2856.55,1352.75ZM2929,1128.12h72l-66.13,84.6h-59.32Z" transform="translate(-518.77 -954.01)"/><path class="cls-1" d="M3194,1248.7v59.8h-53.48v192.06h-68.08V1248.7Z" transform="translate(-518.77 -954.01)"/><path class="cls-1" d="M3211,1175.77c0-22.37,18-39.88,40.36-39.88s40.36,17.51,40.36,39.88-18,39.86-40.36,39.86S3211,1198.13,3211,1175.77Zm6.81,324.79V1248.7h68.07v251.86Z" transform="translate(-518.77 -954.01)"/><path class="cls-1" d="M3438.55,1240.92c37.44,0,68.56,14.59,84.61,40.84h1.94c-1-4.86-1.46-10.21-1.46-21.39V1248.7h62.72v363.69h-67.58V1493.27c0-10.21,0-15.08,1-21.88h-1.46c-12.64,22.85-42.3,36.95-77.31,36.95-71.47,0-124.47-54.94-124.47-133.71S3368.05,1240.92,3438.55,1240.92Zm-54,133.22c0,43.76,28.69,73.91,68.56,73.91s68.07-30.15,68.07-73.91-28.2-73.9-68.07-73.9S3384.58,1330.38,3384.58,1374.14Z" transform="translate(-518.77 -954.01)"/><path class="cls-1" d="M3633,1500.56V1248.7h68.07v192.54H3777V1248.7H3845v251.86Z" transform="translate(-518.77 -954.01)"/><path class="cls-1" d="M3927.21,1217.09l-22.36,45.71-27.24-7.78,20.43-47.16c1-2.92,2.43-5.84,3.4-8.27-17-2.92-30.14-16.53-30.14-36a35.59,35.59,0,0,1,36-36c23.33,0,36.95,17,36.95,35.49C3944.23,1185.49,3935,1201.05,3927.21,1217.09Z" transform="translate(-518.77 -954.01)"/><path class="cls-2" d="M1810.67,1579.33H2028v74.4H1896.25v70h122v72.93h-122v72h134.2V1944H1810.67Z" transform="translate(-518.77 -954.01)"/><path class="cls-2" d="M2283.29,1579.33h85.57v289.31h117.19V1944H2283.29Z" transform="translate(-518.77 -954.01)"/><path class="cls-2" d="M2724.79,1579.33h85.57v289.31h117.18V1944H2724.79Z" transform="translate(-518.77 -954.01)"/><path class="cls-2" d="M3166.29,1579.33h217.34v74.4H3251.86v70h122v72.93h-122v72h134.2V1944H3166.29Z" transform="translate(-518.77 -954.01)"/><path class="cls-2" d="M3738.09,1701.87l68.56,41.81c29.66,18,59.32,47.65,59.32,100.16,0,65.15-50.08,108-121.07,108-77.31,0-115.24-47.17-124.47-104.54l74.39-28.69c4.37,21.88,18,56.89,52,56.89,21.88,0,32.58-14.59,32.58-30.15,0-13.13-4.86-24.31-24.8-36.46l-59.8-36.47c-28.2-17-62.72-38.42-62.72-97.24,0-54,42.3-103.57,112.31-103.57,66.13,0,103.08,33.06,119.13,87.52l-73.42,27.22c-12.64-32.57-29.66-40.35-47.17-40.35-15.07,0-27.71,9.24-27.71,24.31C3715.24,1686.3,3725,1694.09,3738.09,1701.87Z" transform="translate(-518.77 -954.01)"/><path class="cls-3" d="M1536.84,1364.2c0-185.43-150.85-336.28-336.28-336.28-136.64,0-254.5,81.93-307.06,199.24,11.69-1,23.51-1.54,35.46-1.54,226.53,0,410.18,183.65,410.18,410.18,0,12-.54,23.77-1.54,35.46C1454.91,1618.7,1536.84,1500.84,1536.84,1364.2Z" transform="translate(-518.77 -954.01)"/><path class="cls-1" d="M518.77,1635.8C518.77,1862.34,702.42,2046,929,2046c184.58,0,340.67-121.93,392.16-289.63a409.91,409.91,0,0,1-120.56,18c-226.53,0-410.18-183.65-410.18-410.18a409.91,409.91,0,0,1,18-120.56C640.7,1295.13,518.77,1451.22,518.77,1635.8Z" transform="translate(-518.77 -954.01)"/><path class="cls-1" d="M929,1225.62c-12,0-23.77.54-35.46,1.54a334.39,334.39,0,0,0-29.21,137c0,185.42,150.85,336.27,336.27,336.27a334.39,334.39,0,0,0,137-29.21c1-11.69,1.54-23.51,1.54-35.46C1339.14,1409.27,1155.49,1225.62,929,1225.62Z" transform="translate(-518.77 -954.01)"/><path class="cls-2" d="M1200.56,1027.92c185.43,0,336.28,150.85,336.28,336.28,0,136.64-81.93,254.5-199.24,307.06a408.86,408.86,0,0,1-16.48,85.1c167.7-51.49,289.63-207.58,289.63-392.16,0-226.54-183.65-410.19-410.19-410.19C1016,954,859.89,1075.94,808.4,1243.64a408.86,408.86,0,0,1,85.1-16.48C946.06,1109.85,1063.92,1027.92,1200.56,1027.92Z" transform="translate(-518.77 -954.01)"/><path class="cls-4" d="M1200.56,1774.38a409.91,409.91,0,0,0,120.56-18,408.86,408.86,0,0,0,16.48-85.1,334.39,334.39,0,0,1-137,29.21c-185.42,0-336.27-150.85-336.27-336.27a334.39,334.39,0,0,1,29.21-137,408.86,408.86,0,0,0-85.1,16.48,409.91,409.91,0,0,0-18,120.56C790.38,1590.73,974,1774.38,1200.56,1774.38Z" transform="translate(-518.77 -954.01)"/></svg>