<svg xmlns="http://www.w3.org/2000/svg" width="600" height="264.304" viewBox="0 0 600 264.304"><path d="M13.679 251.5c.94-1.036 1.49-2.295 1.49-3.687 0-3.396-3.332-6.143-7.447-6.143H2.157c-1.177 0-2.157.774-2.157 1.778v19.077c0 .972.98 1.779 2.157 1.779.038 0 .038-.032.117-.032 0 0 0 .032.04.032H9.25c4.625 0 8.387-3.106 8.387-6.95 0-2.46-1.607-4.627-3.96-5.854zm-9.329-6.24h3.372c1.724 0 3.096 1.13 3.096 2.553 0 1.424-1.372 2.619-3.096 2.619H4.35v-5.172zm4.901 15.454h-4.9v-6.692h4.9c2.234.032 4.037 1.488 4.037 3.331 0 1.876-1.803 3.329-4.037 3.361zm34.694-16.232c-2.313-2.134-5.762-3.458-9.369-3.458-3.762 0-7.21 1.324-9.603 3.458-2.429 2.134-3.879 4.981-3.879 8.18 0 3.203 1.45 6.08 3.88 8.181 2.392 2.102 5.84 3.461 9.602 3.461 3.607 0 7.056-1.36 9.37-3.46 2.429-2.103 3.957-4.98 3.957-8.182 0-3.199-1.528-6.046-3.958-8.18zm-3.175 13.807a9.357 9.357 0 0 1-6.194 2.328c-2.508 0-4.702-.871-6.348-2.328-1.647-1.39-2.665-3.428-2.665-5.627s1.018-4.235 2.665-5.656c1.646-1.456 3.84-2.295 6.348-2.295 2.352 0 4.548.84 6.194 2.295 1.606 1.42 2.665 3.458 2.665 5.656s-1.059 4.236-2.665 5.627zm32.66-16.62c-1.215 0-2.195.775-2.195 1.78v11.509c0 3.17-3.096 5.756-6.977 5.756-3.841 0-6.976-2.586-6.976-5.756v-11.51c0-1.004-1.02-1.778-2.195-1.778-1.216 0-2.155.774-2.155 1.778v11.51c0 5.143 5.017 9.346 11.326 9.346 6.272 0 11.327-4.203 11.327-9.346v-11.51c0-1.004-.94-1.778-2.155-1.778zm23.566 19.045H86.373v-17.266c0-.971-.98-1.778-2.194-1.778-1.215 0-2.156.807-2.156 1.778v19.077c0 .972.94 1.779 2.156 1.779h12.818c1.136 0 2.154-.807 2.154-1.779 0-1-1.018-1.81-2.155-1.81zm26.187-16.232c-2.313-2.134-5.762-3.458-9.368-3.458-3.763 0-7.211 1.324-9.603 3.458-2.43 2.134-3.88 4.981-3.88 8.18 0 3.203 1.45 6.08 3.88 8.181 2.392 2.102 5.84 3.461 9.603 3.461 3.606 0 7.055-1.36 9.368-3.46 2.43-2.103 3.958-4.98 3.958-8.182 0-3.199-1.528-6.046-3.958-8.18zm-3.175 13.807a9.357 9.357 0 0 1-6.193 2.328c-2.509 0-4.703-.871-6.349-2.328-1.647-1.39-2.665-3.428-2.665-5.627s1.018-4.235 2.665-5.656c1.646-1.456 3.84-2.295 6.349-2.295 2.352 0 4.547.84 6.193 2.295 1.606 1.42 2.665 3.458 2.665 5.656s-1.059 4.236-2.665 5.627zm34.7-6.983h-.041H146.908c-1.216 0-2.235.775-2.235 1.812 0 1 1.019 1.84 2.234 1.84h5.605v4.432a12.61 12.61 0 0 1-5.37 1.227c-2.822 0-5.292-.871-7.055-2.36-1.843-1.456-2.939-3.428-2.939-5.562 0-2.199 1.096-4.171 2.94-5.624 1.762-1.489 4.232-2.36 7.054-2.36 2.351 0 4.508.678 6.193 1.743.98.649 2.43.488 3.175-.29.745-.808.588-2.005-.432-2.619-2.43-1.585-5.605-2.521-8.936-2.521-7.957 0-14.462 5.172-14.462 11.67 0 6.47 6.505 11.61 14.462 11.61 3.331 0 6.427-.936 8.897-2.521.392-.226.628-.485.746-.778v-.033c.039-.064.039-.097.077-.161.04-.194.118-.323.118-.549v-7.144c0-1.037-1.018-1.812-2.273-1.812zm28.777-9.314c-1.175 0-2.116.81-2.116 1.747v13.32l-12.66-14.45c-.667-.778-1.998-.94-2.978-.39-.588.358-.903.939-.862 1.488v18.818c0 .972.94 1.779 2.155 1.779 1.136 0 2.116-.807 2.116-1.779v-13.417l12.542 14.357c.04.064.118.129.197.193.391.388.98.646 1.606.646 1.177 0 2.157-.807 2.157-1.779V243.74c0-.936-.98-1.747-2.157-1.747zm23.017 3.268c1.137 0 2.155-.81 2.155-1.812 0-1.004-1.018-1.778-2.155-1.778h-12.816c-1.216 0-2.157.774-2.157 1.778v19.077c0 .972.941 1.779 2.157 1.779l.038-.032s0 .032.08.032h12.698c1.137 0 2.155-.807 2.155-1.779 0-1-1.018-1.81-2.155-1.81H195.88v-5.951h9.134c1.175 0 2.154-.807 2.154-1.808 0-.94-.98-1.779-2.154-1.779h-9.134v-5.917h10.623zm15.489 7.209h-7.369c-1.254 0-2.312.875-2.312 1.94 0 1.036 1.058 1.908 2.312 1.908h7.369c1.254 0 2.313-.872 2.313-1.908 0-1.065-1.059-1.94-2.313-1.94zm22.07-.485c-1.568-.613-3.41-1.033-5.408-1.359h-.08c-2.116-.323-3.88-.84-4.899-1.42-.51-.29-.862-.585-1.057-.843-.197-.258-.274-.516-.274-.904 0-.678.43-1.391 1.488-2.037 1.059-.646 2.626-1.1 4.39-1.1 2.391 0 4.312.97 6.31 2.069.942.52 2.196.29 2.784-.485.627-.742.353-1.779-.55-2.295-1.998-1.069-4.78-2.586-8.543-2.586-2.55 0-4.94.613-6.782 1.714-1.803 1.098-3.134 2.78-3.134 4.72 0 .969.313 1.876.9 2.65.862 1.134 2.157 1.941 3.645 2.522 1.49.584 3.214.972 5.058 1.262h.077c2.313.355 4.232.904 5.37 1.521.588.323.94.646 1.176.969.235.322.353.613.353 1.036 0 .807-.51 1.614-1.687 2.328-1.175.71-2.94 1.194-4.899 1.194-2.783.032-5.761-1.324-7.485-2.49-.864-.58-2.157-.483-2.862.227-.667.713-.549 1.779.313 2.36 2.234 1.456 5.802 3.202 10.034 3.235 2.783 0 5.332-.678 7.251-1.844 1.96-1.162 3.372-2.94 3.372-5.01a4.596 4.596 0 0 0-.94-2.75c-.903-1.195-2.314-2.038-3.92-2.684zm30.464-10.314c-1.215 0-2.195.774-2.195 1.778v11.51c0 3.17-3.096 5.756-6.977 5.756-3.841 0-6.976-2.586-6.976-5.756v-11.51c0-1.004-1.02-1.778-2.196-1.778-1.215 0-2.155.774-2.155 1.778v11.51c0 5.143 5.017 9.346 11.327 9.346 6.271 0 11.327-4.203 11.327-9.346v-11.51c0-1.004-.94-1.778-2.155-1.778zm26.19 18.85c-.078-.322-.196-.936-.156-1.908 0-1.356-.51-2.553-1.294-3.49a5.524 5.524 0 0 0-1.372-1.197c1.882-1.295 3.057-3.17 3.057-5.305 0-3.845-3.723-6.95-8.388-6.95h-7.015c-1.215 0-2.157.774-2.157 1.778v19.077c0 .972.942 1.779 2.157 1.779 1.214 0 2.195-.807 2.195-1.779v-7.015h4.625c.352.064 1.372.323 2.194.775.471.258.94.58 1.177.94.274.354.43.774.47 1.387 0 1.78.274 2.945.823 3.88.313.453.745.876 1.254 1.134.549.29 1.136.355 1.528.355h.04c.391 0 .706-.064.863-.097 1.136-.322 1.762-1.327 1.37-2.263-.234-.552-.744-.94-1.37-1.1zm-8.153-8.6h-4.82v-6.66h4.82c2.234 0 4.038 1.488 4.038 3.36 0 1.812-1.804 3.3-4.038 3.3zm23.096.549h-7.37c-1.253 0-2.312.875-2.312 1.94 0 1.036 1.06 1.908 2.312 1.908h7.37c1.253 0 2.312-.872 2.312-1.908 0-1.065-1.059-1.94-2.312-1.94zm28.223-10.8h-.038c-.704 0-1.334.259-1.763.743l-7.8 8.927-7.8-8.927c-.39-.484-1.098-.742-1.724-.742h-.12c-1.174 0-2.153.807-2.153 1.778v19.077c0 .972.979 1.779 2.154 1.779 1.217 0 2.195-.807 2.195-1.779v-13.61l5.605 6.466c.432.484 1.097.742 1.804.742h.078c.707 0 1.333-.258 1.762-.742l5.647-6.467v13.611c0 .972.94 1.779 2.153 1.779 1.179 0 2.196-.807 2.196-1.779v-19.077c0-.971-1.017-1.746-2.196-1.778zm23.723 3.59c1.136 0 2.156-.81 2.156-1.81 0-1.005-1.02-1.78-2.156-1.78h-12.818c-1.213 0-2.152.775-2.152 1.78v19.076c0 .972.939 1.779 2.153 1.779l.039-.032s0 .032.08.032h12.698c1.136 0 2.156-.807 2.156-1.779 0-1-1.02-1.81-2.156-1.81h-10.622v-5.951h9.133c1.176 0 2.157-.807 2.157-1.808 0-.94-.981-1.779-2.157-1.779h-9.133v-5.917h10.622zm26.23 16.362c-.235-.552-.745-.94-1.371-1.1-.078-.323-.197-.937-.159-1.909 0-1.356-.51-2.553-1.291-3.49a5.553 5.553 0 0 0-1.372-1.197c1.879-1.295 3.057-3.17 3.057-5.305 0-3.845-3.725-6.95-8.387-6.95h-7.019c-1.214 0-2.153.774-2.153 1.778v19.077c0 .972.94 1.779 2.153 1.779 1.217 0 2.196-.807 2.196-1.779v-7.015h4.626c.352.064 1.372.323 2.195.775.468.258.94.58 1.175.94.275.354.433.774.472 1.387 0 1.78.274 2.945.823 3.88.313.453.742.876 1.253 1.134.548.29 1.136.355 1.53.355h.039c.39 0 .703-.064.862-.097 1.136-.322 1.762-1.327 1.372-2.263zm-9.523-9.701h-4.823v-6.66h4.823c2.234 0 4.035 1.488 4.035 3.36 0 1.812-1.801 3.3-4.035 3.3z" fill="#4ba7d9"/><path d="M78 132.633c0-8.64-6.5-16.26-16.013-20.58 3.805-3.638 6.024-8.072 6.024-12.962 0-11.938-13.475-21.603-30.122-21.603H15.375c-4.757 0-8.72 2.728-8.72 6.254v67.083c0 3.413 3.963 6.254 8.72 6.254.159 0 .159-.113.475-.113 0 0 0 .113.16.113H44.07c18.709 0 33.93-10.916 33.93-24.446zM24.253 90.108H37.89c6.975 0 12.524 3.981 12.524 8.983 0 5.003-5.55 9.21-12.524 9.21H24.253V90.107zm19.818 54.35H24.253v-23.536h19.818c9.038.113 16.331 5.23 16.331 11.711 0 6.596-7.293 11.71-16.33 11.826zm59.296 12.62c4.914 0 8.879-2.84 8.879-6.253v-24.673h18.708c1.427.228 5.548 1.136 8.878 2.73 1.904.908 3.805 2.045 4.757 3.296 1.11 1.25 1.744 2.73 1.902 4.89 0 6.254 1.11 10.345 3.33 13.644 1.269 1.592 3.012 3.07 5.074 3.978 2.22 1.023 4.597 1.252 6.182 1.252h.16c1.585 0 2.854-.229 3.487-.342 4.598-1.136 7.134-4.662 5.55-7.958-.952-1.934-3.013-3.3-5.55-3.868-.317-1.136-.793-3.296-.633-6.707 0-4.775-2.062-8.983-5.234-12.279-1.585-1.706-3.488-3.07-5.548-4.207 7.61-4.548 12.367-11.143 12.367-18.647 0-13.53-15.062-24.446-33.93-24.446H103.368c-4.915 0-8.72 2.728-8.72 6.254v67.083c0 3.413 3.805 6.254 8.72 6.254zm8.879-66.97h19.5c9.037 0 16.33 5.23 16.33 11.826 0 6.366-7.293 11.597-16.33 11.597h-19.5V90.108zm78.796 66.628c.952.23 1.903.343 3.013.343 3.487 0 6.817-1.479 8.244-3.981l7.77-14.78h38.526l7.769 14.78c1.267 2.502 4.597 3.98 8.085 3.98 1.11 0 2.22-.112 3.012-.342 4.598-1.249 6.817-4.887 5.232-8.184l-35.038-66.97c-1.427-2.502-4.757-4.094-8.403-3.98-3.489-.114-6.975 1.478-8.402 3.98l-35.04 66.97c-1.585 3.297.634 6.935 5.232 8.184zm38.21-55.37l12.842 24.445H216.41l12.843-24.445zm70.076 55.713c4.598 0 8.56-2.841 8.56-6.254V103.64l50.734 50.482c.162.23.478.456.794.685 1.586 1.362 3.965 2.273 6.5 2.273 4.758 0 8.72-2.841 8.72-6.254v-66.06c0-3.298-3.962-6.14-8.72-6.14-4.756 0-8.56 2.842-8.56 6.14v46.845l-51.212-50.825c-2.694-2.728-8.085-3.297-12.048-1.364-2.38 1.25-3.647 3.298-3.488 5.23v66.174c0 3.413 3.804 6.254 8.72 6.254zm118.113 0h51.845c4.597 0 8.72-2.841 8.72-6.254 0-3.525-4.123-6.366-8.72-6.366h-42.964V83.742c0-3.41-3.964-6.254-8.881-6.254-4.914 0-8.72 2.843-8.72 6.254v67.083c0 3.413 3.806 6.254 8.72 6.254zm100.658-36.189C464.352 71.835 442.17 20.22 442.17 20.22c-.853 39.245 61 117.733 61 117.733-15.357 21.328-30.287 53.32-42.657 87.446-12.37 34.125-64.838-29.433-103.23-49.055-38.39-19.622-309.9 36.471-309.9 36.471s206.671-15.57 267.244-21.115c60.572-5.545 92.138 49.482 124.984 61.426 20.528 7.465 32.726-4.232 38.987-14.055 3.016-4.732 5.06-10.023 6.462-15.457C515.088 107.222 600 72.123 600 72.123c-58.44 13.085-81.9 48.767-81.9 48.767z" fill="#21447f"/><path d="M37.73 63.697H11.21V23.156c0-2.278-2.446-4.176-5.481-4.176-3.033 0-5.382 1.898-5.382 4.176v44.79c0 2.278 2.349 4.177 5.382 4.177H37.73c2.838 0 5.382-1.899 5.382-4.176 0-2.354-2.544-4.25-5.382-4.25zm49.035-43.35c-2.348-1.367-5.675-.988-7.535.91L62.496 39.023 45.76 21.258c-1.664-1.899-4.991-2.278-7.436-.91-2.448 1.365-2.937 3.946-1.077 5.768L57.114 47.45v20.497c0 2.353 2.544 4.176 5.382 4.176 3.033 0 5.381-1.823 5.381-4.176V47.45L87.94 26.116c1.664-1.822 1.175-4.403-1.174-5.769zm19.58 11.235c4.6-3.34 10.863-5.466 17.615-5.466 6.068 0 11.45 1.443 15.756 4.176 2.25 1.366 5.871 1.062 7.83-.836 1.76-1.897 1.368-4.554-.98-6.073-6.165-3.72-13.994-5.92-22.606-5.92-19.572.075-35.818 12.298-35.915 27.33.097 15.107 16.343 27.33 35.915 27.33 8.612 0 16.44-2.202 22.605-5.921 2.349-1.443 2.741-4.176.98-6.074-1.958-1.823-5.579-2.126-7.829-.835-4.403 2.733-9.688 4.174-15.756 4.174-6.752 0-13.015-2.124-17.616-5.465-4.403-3.34-7.143-8.047-7.143-13.21s2.74-9.717 7.143-13.21zm95.132-4.174c2.838 0 5.382-1.899 5.382-4.252s-2.544-4.176-5.382-4.176H169.476c-3.033 0-5.382 1.822-5.382 4.176v44.79c0 2.278 2.349 4.177 5.382 4.177l.098-.076s0 .076.196.076h31.707c2.838 0 5.382-1.899 5.382-4.176 0-2.354-2.544-4.25-5.382-4.25h-26.521v-13.97h22.802c2.937 0 5.382-1.898 5.382-4.252 0-2.201-2.445-4.176-5.382-4.176h-22.802V27.408h26.521zm-10.863-15.261c2.74 0 4.6-.38 6.949-2.05l6.557-4.859c.978-.683 1.663-1.441 1.663-2.276 0-1.443-3.915-2.962-7.046-2.962-2.055 0-3.621.836-4.698 2.202l-5.577 6.681c-.392.455-.783 1.138-.783 1.67 0 .987 1.272 1.594 2.935 1.594zm66.455 15.26c2.838 0 5.382-1.898 5.382-4.251s-2.544-4.176-5.382-4.176H225.067c-3.033 0-5.381 1.822-5.381 4.176v44.79c0 2.278 2.348 4.177 5.381 4.177l.099-.076s0 .076.195.076h31.708c2.838 0 5.382-1.899 5.382-4.176 0-2.354-2.544-4.25-5.382-4.25h-26.521v-13.97h22.802c2.936 0 5.382-1.898 5.382-4.252 0-2.201-2.446-4.176-5.382-4.176h-22.802V27.408h26.521zm275.088-6.642c-10.049-1.887-20.812 10.52-24.041 27.71s2.3 32.66 12.348 34.546c10.049 1.888 20.813-10.519 24.041-27.71s-2.3-32.659-12.348-34.546z" fill="#a52284"/></svg>